<?xml version="1.0" standalone="no"?><!DOCTYPE svg PUBLIC "-//W3C//DTD SVG 1.1//EN" "http://www.w3.org/Graphics/SVG/1.1/DTD/svg11.dtd"><svg class="icon" height="512" viewBox="0 0 1024 1024" version="1.1" xmlns="http://www.w3.org/2000/svg"><path d="M958.149734 513.676176c-0.030699 0.375553-0.065492 0.735757-0.092098 1.092891-0.034792 0.188288-0.034792 0.358157-0.064468 0.561795 0 0.267083-0.061398 0.531096-0.096191 0.795109-0.026606 0.312108-0.061398 0.610914-0.122797 0.923022 0 0.048095 0 0.076748 0 0.124843-1.125637 6.919597-4.371564 13.399171-9.338692 18.395976-9.365298 11.135618-19.581987 21.579481-29.855982 31.826869-55.624878 55.342446-119.429043 104.688317-189.264575 140.493801-44.663222 22.878057-92.354408 41.337477-141.826146 50.206472-54.373375 9.758248-108.841917 9.258874-162.967652-2.26253-93.599771-19.97596-178.426739-69.540819-252.604158-128.801505-34.446533-27.516704-68.301596-57.625442-96.755648-91.463108-12.459776-14.804171-12.459776-32.339546 0-47.143717 9.338692-11.117199 19.584034-21.582551 29.857005-31.810496 55.593156-55.343469 119.401414-104.705714 189.265598-140.496871 44.632523-22.87601 92.321662-41.334407 141.791353-50.221822 54.406121-9.743922 108.84601-9.257851 162.969699 2.2656 93.632517 19.971867 178.427762 69.554122 252.602112 128.816854 34.450626 27.498284 68.307735 57.620325 96.757694 91.462085 4.997827 4.996804 8.244778 11.478426 9.339716 18.394952 0 0.031722 0 0.093121 0.029676 0.125867 0.030699 0.294712 0.062422 0.607844 0.096191 0.918929 0.062422 0.26606 0.092098 0.533143 0.122797 0.811482 0 0.172939 0.029676 0.361227 0.029676 0.547469 0.034792 0.361227 0.061398 0.719384 0.096191 1.110287 0.030699 0.544399 0.062422 1.089821 0.062422 1.65264C958.180434 512.566912 958.149734 513.128707 958.149734 513.676176zM512.002558 341.166193c-92.416829 0-167.310563 73.427336-167.310563 164.001191 0 90.571808 74.893734 163.995051 167.310563 163.995051 92.384084 0 167.308517-73.423243 167.308517-163.995051C679.311075 414.594553 604.386642 341.166193 512.002558 341.166193zM512.002558 587.165933c-46.221718 0-83.671655-36.713156-83.671655-81.998549 0-45.286416 37.448914-82.000596 83.671655-82.000596 46.189995 0 83.637886 36.713156 83.637886 82.000596C595.640444 550.452777 558.19153 587.165933 512.002558 587.165933z" /></svg>